<?xml version="1.0" encoding="UTF-8" standalone="no"?>
<!-- Created with Inkscape (http://www.inkscape.org/) -->

<svg
   width="300mm"
   height="300mm"
   viewBox="0 0 300 300"
   version="1.1"
   id="svg1"
   inkscape:version="1.3.2 (091e20e, 2023-11-25, custom)"
   sodipodi:docname="avatar-inkscape.svg"
   inkscape:export-filename="段風桜アバター画像.png"
   inkscape:export-xdpi="84.7"
   inkscape:export-ydpi="84.7"
   xmlns:inkscape="http://www.inkscape.org/namespaces/inkscape"
   xmlns:sodipodi="http://sodipodi.sourceforge.net/DTD/sodipodi-0.dtd"
   xmlns="http://www.w3.org/2000/svg"
   xmlns:svg="http://www.w3.org/2000/svg"
   xmlns:rdf="http://www.w3.org/1999/02/22-rdf-syntax-ns#"
   xmlns:cc="http://creativecommons.org/ns#"
   xmlns:dc="http://purl.org/dc/elements/1.1/">
  <title
     id="title9">段風桜（ダンプウザクラ）アバター画像</title>
  <sodipodi:namedview
     id="namedview1"
     pagecolor="#505050"
     bordercolor="#eeeeee"
     borderopacity="1"
     inkscape:showpageshadow="0"
     inkscape:pageopacity="0"
     inkscape:pagecheckerboard="0"
     inkscape:deskcolor="#505050"
     inkscape:document-units="mm"
     inkscape:zoom="0.453"
     inkscape:cx="519"
     inkscape:cy="542"
     inkscape:window-width="1203"
     inkscape:window-height="745"
     inkscape:window-x="155"
     inkscape:window-y="-8"
     inkscape:window-maximized="1"
     inkscape:current-layer="layer1" />
  <defs
     id="defs1">
    <filter
       inkscape:collect="always"
       style="color-interpolation-filters:sRGB"
       id="filter2"
       x="-0.162"
       y="-0.246"
       width="1.32"
       height="1.49">
      <feGaussianBlur
         inkscape:collect="always"
         stdDeviation="18.7"
         id="feGaussianBlur2" />
    </filter>
    <filter
       inkscape:collect="always"
       style="color-interpolation-filters:sRGB"
       id="filter2-0"
       x="-0.28"
       y="-0.426"
       width="1.56"
       height="1.85">
      <feGaussianBlur
         inkscape:collect="always"
         stdDeviation="32.4"
         id="feGaussianBlur2-0" />
    </filter>
    <filter
       inkscape:collect="always"
       style="color-interpolation-filters:sRGB"
       id="filter3"
       x="-0.0686"
       y="-0.0358"
       width="1.14"
       height="1.07">
      <feGaussianBlur
         inkscape:collect="always"
         stdDeviation="0.552"
         id="feGaussianBlur3" />
    </filter>
    <filter
       inkscape:collect="always"
       style="color-interpolation-filters:sRGB"
       id="filter4"
       x="-0.0687"
       y="-0.0369"
       width="1.14"
       height="1.07">
      <feGaussianBlur
         inkscape:collect="always"
         stdDeviation="0.553"
         id="feGaussianBlur4" />
    </filter>
    <filter
       inkscape:collect="always"
       style="color-interpolation-filters:sRGB"
       id="filter5"
       x="-0.0687"
       y="-0.0369"
       width="1.14"
       height="1.07">
      <feGaussianBlur
         inkscape:collect="always"
         stdDeviation="0.553"
         id="feGaussianBlur5" />
    </filter>
    <filter
       inkscape:collect="always"
       style="color-interpolation-filters:sRGB"
       id="filter6"
       x="-0.258"
       y="-0.359"
       width="1.52"
       height="1.72">
      <feGaussianBlur
         inkscape:collect="always"
         stdDeviation="6.3"
         id="feGaussianBlur6" />
    </filter>
    <filter
       inkscape:collect="always"
       style="color-interpolation-filters:sRGB"
       id="filter6-2"
       x="-0.258"
       y="-0.36"
       width="1.52"
       height="1.72">
      <feGaussianBlur
         inkscape:collect="always"
         stdDeviation="6.3"
         id="feGaussianBlur6-9" />
    </filter>
    <filter
       inkscape:collect="always"
       style="color-interpolation-filters:sRGB"
       id="filter6-7"
       x="-0.258"
       y="-0.359"
       width="1.52"
       height="1.72">
      <feGaussianBlur
         inkscape:collect="always"
         stdDeviation="6.3"
         id="feGaussianBlur6-6" />
    </filter>
    <filter
       inkscape:collect="always"
       style="color-interpolation-filters:sRGB"
       id="filter6-3"
       x="-0.257"
       y="-0.359"
       width="1.51"
       height="1.72">
      <feGaussianBlur
         inkscape:collect="always"
         stdDeviation="6.3"
         id="feGaussianBlur6-99" />
    </filter>
  </defs>
  <g
     inkscape:label="レイヤー1"
     inkscape:groupmode="layer"
     id="layer1">
    <path
       style="opacity:0.5;mix-blend-mode:normal;fill:#fafafa;fill-opacity:1;stroke-width:0;stroke-opacity:0.503;filter:url(#filter6-3)"
       d="m 53.8,255 c -4,-8 3,-18 9,-25 5,-5 12,-9 19,-10 10,-1 25.2,-2 29.2,7 3,8 -8,14 -14.2,20 -6,6 -12,13 -20,14 -8,1 -19,1 -23,-6 z"
       id="path6-5"
       sodipodi:nodetypes="aaaaaaa"
       inkscape:label="雲4" />
    <path
       style="opacity:1;fill:#6464e6;fill-opacity:1;stroke-width:0;stroke-opacity:0.503"
       d="M 77.7,77.7 C 38.8,118 19,178 26.6,225 c 4,24 23.2,49 47.5,60 49.9,23 117.9,17 167.9,-5 27,-12 52,-36 56,-62 C 307,160 275,73.4 218,47.7 175,28.2 113,48 77.7,77.7 Z"
       id="path1"
       sodipodi:nodetypes="aaaaaaa"
       inkscape:label="空" />
    <path
       style="opacity:1;fill:#fab4fa;fill-opacity:1;stroke-width:0;stroke-opacity:0.503;filter:url(#filter2)"
       d="m 16.1,159 c 16.8,-8 37.7,-2 56,-6 18.6,-4 36.9,-9 53.9,-18 18,-9 32,-24 49,-35 18,-10.8 41,-15.8 55,-31.8 11,-12.3 8,-33.3 19,-45.5 5,-5 11,-10.7 18,-9.5 6,1.2 11,8.5 13,14.8 3,9.8 -2,20.5 -5,30.2 -2,6 -4,12 -8,17 -6,8 -15,14 -21,22 -8,9.8 -12,23.8 -22,32.8 -7,6 -18,7 -26,12 -11,6 -21,14 -32,20 -20,11 -40,26 -63,31 -17.1,4 -35.6,2 -53.4,0 -14.3,-1 -32.5,3 -42.38,-8 -3.4,-4 -3.3,-10 -1.7,-15 1.6,-5 6.08,-9 10.58,-11 z"
       id="path2"
       sodipodi:nodetypes="aaaaaaaaaaaaaaaaaaa"
       inkscape:label="桜風" />
    <path
       style="opacity:0.5;mix-blend-mode:normal;fill:#fafafa;fill-opacity:1;stroke-width:0;stroke-opacity:0.503;filter:url(#filter6-7)"
       d="m 202,158 c -4,-8 3,-18 9,-25 5,-5 12,-9 19,-10 10,-1 25,-2 29,7 3,8 -8,14 -14,20 -6,6 -12,13 -20,14 -8,1 -19,1 -23,-6 z"
       id="path6-2"
       sodipodi:nodetypes="aaaaaaa"
       inkscape:label="雲3" />
    <path
       style="mix-blend-mode:normal;fill:#faab73;fill-opacity:1;stroke-width:0;stroke-opacity:0.503;filter:url(#filter2-0)"
       d="m 19.3,204 c 16.4,-8 37.4,-2 56.4,-6 18.3,-4 37.3,-9 54.3,-18 18,-9 32,-24 49,-35 18,-11 41,-16 55,-32 11,-12 8,-33.4 19,-45.6 5,-5 11,-10.7 18,-9.5 6,1.2 11,8.5 13,14.8 3,9.8 -2,20 -5,30.3 -2,6 -4,12 -8,17 -6,8 -15,14 -21,22 -8,10 -12,24 -22,33 -7,6 -18,7 -26,12 -11,6 -21,14 -32,20 -20,11 -40,26 -63,31 -18.3,4 -36.3,2 -54.3,0 -14,-1 -32.4,3 -42.3,-8 -3.39,-4 -3.29,-10 -1.69,-15 1.59,-5 6.09,-9 10.59,-11 z"
       id="path2-2"
       sodipodi:nodetypes="aaaaaaaaaaaaaaaaaaa"
       inkscape:label="暖風" />
    <path
       style="opacity:1;mix-blend-mode:normal;fill:#fab4fa;fill-opacity:1;stroke-width:0;stroke-opacity:0.503;filter:url(#filter5)"
       d="m 66,192 10,-9 c 0,0 1,14 -2,20 -2,7 -11,15 -11,15 0,0 -6,-9 -6,-15 -1,-7 3,-21 3,-21 z"
       id="path3"
       sodipodi:nodetypes="ccacacc"
       inkscape:label="桜花びら1" />
    <path
       style="fill:#fab4fa;fill-opacity:1;stroke-width:0;stroke-opacity:0.503;filter:url(#filter4)"
       d="m 126,158 10,-9 c 0,0 1,14 -2,20 -2,7 -11,15 -11,15 0,0 -6,-9 -6,-15 -1,-7 3,-21 3,-21 z"
       id="path3-0"
       sodipodi:nodetypes="ccacacc"
       inkscape:label="桜花びら2" />
    <path
       style="fill:#fab4fa;fill-opacity:1;stroke-width:0;stroke-opacity:0.503;filter:url(#filter3)"
       d="m 200,130 10,-9 c 0,0 1,14 -2,20 -2,7 -11,15 -11,15 0,0 -6,-9 -6,-15 -1,-7 3,-22 3,-22 z"
       id="path3-3"
       sodipodi:nodetypes="ccacacc"
       inkscape:label="桜花びら3" />
    <path
       style="opacity:0.5;mix-blend-mode:normal;fill:#fafafa;fill-opacity:1;stroke-width:0;stroke-opacity:0.503;filter:url(#filter6-2)"
       d="m 66,120 c -4,-8 3,-18 9,-24.9 5,-5 12,-9 19,-10 10,-1 25,-2 29,7 3,7.9 -8,13.9 -14,19.9 -6,6 -12,13 -20,14 -8,1 -19,1 -23,-6 z"
       id="path6-8"
       sodipodi:nodetypes="aaaaaaa"
       inkscape:label="雲2" />
    <path
       style="opacity:1;fill:#ba6f00;fill-opacity:1;stroke-width:0;stroke-opacity:0.503"
       d="M 21.7,27.5 C 15.8,42.7 37.4,73.6 37.4,73.6 37.4,73.6 -10.3,115 2.04,130 14.2,145 44.3,124 63.9,117 90.4,101 116,85.7 136,68.6 151,55.9 184,37.1 172,22.8 166,16.4 144,31 144,31 144,31 123,6.68 107,2.3 90.4,-2.5 71.2,0.892 55.1,6.28 42,10.3 26.1,16.1 21.7,27.5 Z"
       id="path5"
       sodipodi:nodetypes="acaaaacaaa"
       inkscape:label="帽子" />
    <path
       style="opacity:0.5;mix-blend-mode:normal;fill:#fafafa;fill-opacity:1;stroke-width:0;stroke-opacity:0.503;filter:url(#filter6)"
       d="m 213,253 c -4,-8 3,-18 9,-25 5,-5 12,-9 19,-10 10,-1 25,-2 29,7 3,8 -8,14 -14,20 -6,6 -12,13 -20,14 -8,1 -19,1 -23,-6 z"
       id="path6"
       sodipodi:nodetypes="aaaaaaa"
       inkscape:label="雲1" />
    <g
       id="g8"
       inkscape:label="右目">
      <path
         style="opacity:1;fill:#fafafa;fill-opacity:1;stroke-width:0;stroke-opacity:0.503"
         d="m 91.2,162 c -2.3,-8 8.7,-17 16.8,-19 8,-2 21,2 22,10 1,7 -9,14 -16,16 -8,2 -20.6,1 -22.8,-7 z"
         id="path7"
         sodipodi:nodetypes="aaaaa"
         inkscape:label="右白目" />
      <path
         style="fill:#000000;fill-opacity:1;stroke-width:0;stroke-opacity:0.503"
         d="m 116,165 c -4,1 -8,-5 -9,-9 -1,-4 1,-11 5,-12 3,0 6,5 7,9 1,4 1,10 -3,12 z"
         id="path7-5"
         sodipodi:nodetypes="aaaaa"
         transform="scale(1)"
         inkscape:label="右黒目" />
    </g>
    <g
       id="g9"
       transform="translate(-2.07,-9.89)"
       style="display:inline"
       inkscape:label="左目">
      <path
         style="fill:#fafafa;fill-opacity:1;stroke-width:0;stroke-opacity:0.503"
         d="m 163,167 c -2,-8 9,-17 17,-19 8,-2 21,2 22,10 1,7 -9,14 -16,16 -8,2 -21,1 -23,-7 z"
         id="path7-1"
         sodipodi:nodetypes="aaaaa"
         inkscape:label="左白目" />
      <path
         style="fill:#000000;fill-opacity:1;stroke-width:0;stroke-opacity:0.503"
         d="m 184,171 c -4,1 -8,-5 -9,-9 -1,-4 1,-11 5,-12 3,0 6,5 7,9 1,4 1,10 -3,12 z"
         id="path7-5-8"
         sodipodi:nodetypes="aaaaa"
         inkscape:label="左黒目" />
    </g>
    <path
       style="opacity:1;fill:#ff1e00;fill-opacity:1;stroke-width:0;stroke-opacity:0.503"
       d="m 87.2,223 c -8.1,10 11,24 20.8,33 8,7 19,12 30,14 15,2 31,0 45,-5 10,-4 19,-12 27,-19 9,-8 20,-16 23,-28 1,-3 0,-7 -2,-8 -11,-6 -24,10 -35,15 -13,6 -24,18 -39,20 -11,1 -21,-5 -31,-8 -13,-4 -30.2,-25 -38.8,-14 z"
       id="path8"
       sodipodi:nodetypes="aaaaaaaaaaa"
       inkscape:label="口" />
  </g>
  <metadata
     id="metadata9">
    <rdf:RDF>
      <cc:Work
         rdf:about="">
        <dc:title>段風桜（ダンプウザクラ）アバター画像</dc:title>
        <dc:date>2024/05/04</dc:date>
        <dc:creator>
          <cc:Agent>
            <dc:title>段風桜（ダンプウザクラ）</dc:title>
          </cc:Agent>
        </dc:creator>
        <dc:publisher>
          <cc:Agent>
            <dc:title>段風桜（ダンプウザクラ）</dc:title>
          </cc:Agent>
        </dc:publisher>
        <dc:language>ja</dc:language>
        <cc:license
           rdf:resource="http://creativecommons.org/licenses/by-nd/4.0/" />
      </cc:Work>
      <cc:License
         rdf:about="http://creativecommons.org/licenses/by-nd/4.0/">
        <cc:permits
           rdf:resource="http://creativecommons.org/ns#Reproduction" />
        <cc:permits
           rdf:resource="http://creativecommons.org/ns#Distribution" />
        <cc:requires
           rdf:resource="http://creativecommons.org/ns#Notice" />
        <cc:requires
           rdf:resource="http://creativecommons.org/ns#Attribution" />
      </cc:License>
    </rdf:RDF>
  </metadata>
</svg>
